M48
;Layer_Color=9474304
;FILE_FORMAT=4:2
METRIC,LZ
;TYPE=PLATED
T1F00S00C0.30
T2F00S00C0.50
T3F00S00C0.76
T4F00S00C0.80
T5F00S00C0.81
T6F00S00C0.85
T7F00S00C1.02
T8F00S00C3.00
T9F00S00C4.90
;TYPE=NON_PLATED
T10F00S00C1.50
%
T01
X003117Y002446
X004571Y002459
X005161Y002103
X005432Y002103
X005986Y002103
X006536Y002103
X007238Y002469
X006779Y000925
X007943Y001953
X008044Y001961
T02
X008649Y001363
X008774Y001363
X009324Y001363
X009449Y001363
X009574Y001363
T03
X003969Y000252
X004223Y000252
X004477Y000252
X004731Y000252
X004985Y000252
X005239Y000252
X005493Y000252
X005747Y000252
X006001Y000252
X006255Y000252
X006509Y000252
X006763Y000252
X006763Y001776
X006509Y001776
X006255Y001776
X006001Y001776
X005747Y001776
X005493Y001776
X005239Y001776
X004985Y001776
X004731Y001776
X004477Y001776
X004223Y001776
X003969Y001776
X005436Y002786
X005636Y002786
X005836Y002786
X006036Y002786
X006236Y002786
X006436Y002786
T04
X002955Y00051
X003305Y00051
X003279Y002334
X002929Y002334
X007413Y00151
X007613Y00151
T05
X00036Y000927
X00036Y001296
X00036Y001759
X00036Y002129
X00036Y00258
X00036Y002979
X00078Y003067
X001034Y003067
X001034Y002559
X00078Y002559
X000786Y002213
X00104Y002213
X00104Y001705
X000786Y001705
X000786Y001362
X00104Y001362
X00104Y000854
X000786Y000854
X001802Y000854
X001802Y001362
X001802Y001705
X001802Y002213
X001796Y002559
X001796Y003067
X002363Y002986
X002738Y002986
X003108Y002986
X003508Y002986
X004272Y002979
X004701Y002979
T06
X00723Y002665
X007484Y002665
X007738Y002665
X007611Y002919
X007357Y002919
X007103Y002919
X0088Y002214
X009054Y002214
X009308Y002214
X009435Y00196
X009181Y00196
X008927Y00196
T07
X002881Y001589
X003135Y001589
X003389Y001589
T08
X000405Y000325
X009599Y000483
T09
X001255Y000325
T10
X007878Y002845
X009575Y00214
M30
