G04*
G04 #@! TF.GenerationSoftware,Altium Limited,Altium Designer,20.0.12 (288)*
G04*
G04 Layer_Color=8388736*
%FSLAX42Y42*%
%MOMM*%
G71*
G01*
G75*
%ADD16R,1.30X1.30*%
%ADD17C,1.30*%
%ADD18C,0.75*%
%ADD19R,0.75X0.75*%
%ADD20C,1.50*%
%ADD21C,1.45*%
%ADD22R,1.45X1.45*%
%ADD23C,1.52*%
%ADD24O,1.52X3.05*%
%ADD25P,2.66X8X112.5*%
%ADD26P,2.66X8X22.5*%
%ADD27O,1.22X2.44*%
%ADD28C,1.00*%
%ADD29C,0.60*%
D16*
X7413Y1510D02*
D03*
X3305Y510D02*
D03*
X2929Y2334D02*
D03*
D17*
X7613Y1510D02*
D03*
X2955Y510D02*
D03*
X3279Y2334D02*
D03*
D18*
X8649Y1363D02*
D03*
X9324D02*
D03*
X9449D02*
D03*
D19*
X8774D02*
D03*
X9574D02*
D03*
D20*
X9575Y2140D02*
D03*
X7878Y2845D02*
D03*
D21*
X9435Y1960D02*
D03*
X9308Y2214D02*
D03*
X8927Y1960D02*
D03*
X9054Y2214D02*
D03*
X9181Y1960D02*
D03*
X7738Y2665D02*
D03*
X7611Y2919D02*
D03*
X7230Y2665D02*
D03*
X7357Y2919D02*
D03*
X7484Y2665D02*
D03*
D22*
X8800Y2214D02*
D03*
X7103Y2919D02*
D03*
D23*
X3969Y1776D02*
D03*
X4223D02*
D03*
X4477D02*
D03*
X4731D02*
D03*
X4985D02*
D03*
X5239D02*
D03*
X5493D02*
D03*
X5747D02*
D03*
X6001D02*
D03*
X6255D02*
D03*
X6509D02*
D03*
X6763D02*
D03*
Y252D02*
D03*
X6509D02*
D03*
X6255D02*
D03*
X6001D02*
D03*
X5747D02*
D03*
X5493D02*
D03*
X5239D02*
D03*
X4985D02*
D03*
X4731D02*
D03*
X4477D02*
D03*
X4223D02*
D03*
X3969D02*
D03*
X5436Y2786D02*
D03*
X5636D02*
D03*
X5836D02*
D03*
X6036D02*
D03*
X6236D02*
D03*
X6436D02*
D03*
D24*
X3389Y1589D02*
D03*
X3135D02*
D03*
X2881D02*
D03*
D25*
X360Y2129D02*
D03*
X3508Y2986D02*
D03*
X360Y2580D02*
D03*
Y1759D02*
D03*
Y927D02*
D03*
D26*
X2363Y2986D02*
D03*
X2738D02*
D03*
X3108D02*
D03*
X360Y1296D02*
D03*
Y2979D02*
D03*
X4701D02*
D03*
X4272D02*
D03*
D27*
X786Y1705D02*
D03*
X1040D02*
D03*
X1802D02*
D03*
Y2213D02*
D03*
X1040D02*
D03*
X786D02*
D03*
Y854D02*
D03*
X1040D02*
D03*
X1802D02*
D03*
Y1362D02*
D03*
X1040D02*
D03*
X786D02*
D03*
X780Y2559D02*
D03*
X1034D02*
D03*
X1796D02*
D03*
Y3067D02*
D03*
X1034D02*
D03*
X780D02*
D03*
D28*
X1255Y325D02*
D03*
X405D02*
D03*
X9599Y483D02*
D03*
D29*
X8044Y1961D02*
D03*
X7943Y1953D02*
D03*
X7238Y2469D02*
D03*
X6779Y925D02*
D03*
X4571Y2459D02*
D03*
X3117Y2446D02*
D03*
X6536Y2103D02*
D03*
X5161D02*
D03*
X5432D02*
D03*
X5986D02*
D03*
M02*
