G04*
G04 #@! TF.GenerationSoftware,Altium Limited,Altium Designer,20.0.12 (288)*
G04*
G04 Layer_Color=128*
%FSLAX42Y42*%
%MOMM*%
G71*
G01*
G75*
%ADD43R,1.40X1.00*%
%ADD44R,1.00X1.40*%
%ADD45R,1.50X1.74*%
%ADD46R,1.60X1.40*%
%ADD47R,1.40X1.60*%
%ADD48R,1.40X1.00*%
%ADD49R,2.20X1.60*%
%ADD50R,1.10X1.50*%
%ADD51R,1.50X1.10*%
%ADD52R,1.70X0.70*%
D43*
X7220Y2365D02*
D03*
Y2175D02*
D03*
D44*
X5117Y510D02*
D03*
X4926D02*
D03*
X7168Y1181D02*
D03*
X6978D02*
D03*
D45*
X2877Y2609D02*
D03*
X3280D02*
D03*
D46*
X6552Y926D02*
D03*
Y736D02*
D03*
X7427Y380D02*
D03*
Y190D02*
D03*
X3943Y2346D02*
D03*
Y2536D02*
D03*
X2545Y1627D02*
D03*
Y1817D02*
D03*
X2531Y949D02*
D03*
Y759D02*
D03*
X5161Y2237D02*
D03*
Y2427D02*
D03*
X5711Y2429D02*
D03*
Y2239D02*
D03*
X3566Y2360D02*
D03*
Y2550D02*
D03*
X2575Y2649D02*
D03*
Y2459D02*
D03*
X6811Y2429D02*
D03*
Y2239D02*
D03*
X6261D02*
D03*
Y2429D02*
D03*
X5986Y2239D02*
D03*
Y2429D02*
D03*
X5436D02*
D03*
Y2239D02*
D03*
X6536Y2429D02*
D03*
Y2239D02*
D03*
D47*
X3231Y1268D02*
D03*
X3041D02*
D03*
D48*
X4270Y2663D02*
D03*
Y2409D02*
D03*
X4870D02*
D03*
Y2663D02*
D03*
D49*
X1421Y1780D02*
D03*
Y2140D02*
D03*
X1427Y1285D02*
D03*
Y925D02*
D03*
X1433Y2605D02*
D03*
Y2965D02*
D03*
D50*
X3778Y3016D02*
D03*
X3968Y3016D02*
D03*
X3873Y2796D02*
D03*
D51*
X2273Y1817D02*
D03*
Y1627D02*
D03*
X2053Y1722D02*
D03*
X2261Y945D02*
D03*
Y755D02*
D03*
X2041Y850D02*
D03*
X2261Y2652D02*
D03*
Y2462D02*
D03*
X2041Y2557D02*
D03*
D52*
X7891Y1306D02*
D03*
Y1179D02*
D03*
X7891Y1052D02*
D03*
X7891Y925D02*
D03*
X7371D02*
D03*
Y1052D02*
D03*
X7371Y1179D02*
D03*
X7371Y1306D02*
D03*
M02*
