G04*
G04 #@! TF.GenerationSoftware,Altium Limited,Altium Designer,20.0.12 (288)*
G04*
G04 Layer_Physical_Order=1*
G04 Layer_Color=255*
%FSLAX42Y42*%
%MOMM*%
G71*
G01*
G75*
%ADD16R,1.30X1.30*%
%ADD17C,1.30*%
%ADD18C,0.75*%
%ADD19R,0.75X0.75*%
%ADD20C,1.50*%
%ADD21C,1.45*%
%ADD22R,1.45X1.45*%
%ADD23C,1.52*%
%ADD24O,1.52X3.05*%
%ADD25P,2.66X8X112.5*%
%ADD26P,2.66X8X22.5*%
%ADD27O,1.22X2.44*%
%ADD28C,1.00*%
%ADD29C,0.60*%
%ADD30C,1.00*%
%ADD31C,0.80*%
%ADD32C,0.40*%
G36*
X971Y3207D02*
X962Y3200D01*
X946Y3179D01*
X936Y3154D01*
X933Y3128D01*
Y3006D01*
X936Y2980D01*
X946Y2955D01*
X949Y2951D01*
X900Y2904D01*
X832D01*
X829Y2917D01*
X831Y2918D01*
X852Y2934D01*
X869Y2955D01*
X879Y2980D01*
X882Y3006D01*
Y3128D01*
X879Y3154D01*
X869Y3179D01*
X852Y3200D01*
X844Y3207D01*
X848Y3219D01*
X967D01*
X971Y3207D01*
D02*
G37*
G36*
X8171Y83D02*
X7328Y81D01*
X6914D01*
X6909Y92D01*
X7846Y1030D01*
X7859Y1050D01*
X7864Y1073D01*
Y1905D01*
X7859Y1928D01*
X7853Y1937D01*
X7863Y1945D01*
X7874Y1934D01*
X7881Y1917D01*
X7893Y1903D01*
X7907Y1892D01*
X7924Y1884D01*
X7943Y1882D01*
X7961Y1884D01*
X7978Y1892D01*
X7992Y1903D01*
X7997Y1909D01*
X8009Y1900D01*
X8026Y1893D01*
X8044Y1891D01*
X8062Y1893D01*
X8079Y1900D01*
X8094Y1911D01*
X8105Y1926D01*
X8112Y1943D01*
X8115Y1961D01*
X8112Y1980D01*
X8105Y1997D01*
Y2927D01*
X8101Y2950D01*
X8087Y2970D01*
X7945Y3112D01*
X7925Y3126D01*
X7902Y3130D01*
X7507D01*
X7483Y3126D01*
X7463Y3112D01*
X7381Y3030D01*
X7357Y3033D01*
X7328Y3029D01*
X7300Y3018D01*
X7277Y2999D01*
X7259Y2976D01*
X7247Y2949D01*
X7243Y2919D01*
X7247Y2890D01*
X7259Y2863D01*
X7277Y2839D01*
X7300Y2821D01*
X7328Y2810D01*
X7357Y2806D01*
X7386Y2810D01*
X7414Y2821D01*
X7437Y2839D01*
X7455Y2863D01*
X7467Y2890D01*
X7470Y2919D01*
X7467Y2943D01*
X7498Y2974D01*
X7509Y2967D01*
X7501Y2949D01*
X7497Y2919D01*
X7501Y2890D01*
X7513Y2863D01*
X7531Y2839D01*
X7554Y2821D01*
X7582Y2810D01*
X7611Y2806D01*
X7640Y2810D01*
X7668Y2821D01*
X7691Y2839D01*
X7709Y2863D01*
X7721Y2890D01*
X7724Y2919D01*
X7721Y2949D01*
X7709Y2976D01*
X7694Y2995D01*
X7700Y3008D01*
X7876D01*
X7917Y2967D01*
X7910Y2957D01*
X7908Y2957D01*
X7878Y2961D01*
X7848Y2957D01*
X7820Y2946D01*
X7796Y2927D01*
X7777Y2903D01*
X7766Y2875D01*
X7762Y2845D01*
X7766Y2815D01*
X7777Y2787D01*
X7796Y2763D01*
X7820Y2745D01*
X7848Y2733D01*
X7878Y2729D01*
X7908Y2733D01*
X7936Y2745D01*
X7960Y2763D01*
X7970Y2777D01*
X7983Y2772D01*
Y2025D01*
X7970Y2017D01*
X7961Y2021D01*
X7340Y2641D01*
X7343Y2665D01*
X7340Y2695D01*
X7328Y2722D01*
X7310Y2745D01*
X7287Y2764D01*
X7259Y2775D01*
X7230Y2779D01*
X7201Y2775D01*
X7173Y2764D01*
X7170Y2761D01*
X7159Y2767D01*
Y2807D01*
X7215D01*
Y3032D01*
X6990D01*
Y2807D01*
X7036D01*
Y2610D01*
X7041Y2587D01*
X7054Y2567D01*
X7170Y2451D01*
X7177Y2434D01*
X7188Y2419D01*
X7203Y2408D01*
X7220Y2401D01*
X7742Y1880D01*
Y1098D01*
X6892Y248D01*
X6880Y255D01*
X6876Y282D01*
X6865Y310D01*
X6846Y335D01*
X6844Y336D01*
Y493D01*
X6841Y514D01*
X6833Y533D01*
X6820Y550D01*
X6701Y669D01*
X6684Y682D01*
X6665Y690D01*
X6644Y693D01*
X3556D01*
X3535Y690D01*
X3516Y682D01*
X3499Y669D01*
X3422Y593D01*
X3410Y595D01*
Y615D01*
X3200D01*
Y405D01*
X3283D01*
X3289Y403D01*
X3310Y400D01*
X3331Y403D01*
X3337Y405D01*
X3410D01*
Y430D01*
X3454D01*
X3475Y432D01*
X3494Y441D01*
X3511Y453D01*
X3589Y532D01*
X6610D01*
X6682Y459D01*
Y336D01*
X6680Y335D01*
X6662Y310D01*
X6650Y282D01*
X6646Y252D01*
X6650Y221D01*
X6662Y193D01*
X6671Y181D01*
X6665Y168D01*
X6586D01*
X6583Y181D01*
X6598Y201D01*
X6608Y225D01*
X6610Y239D01*
X6408D01*
X6410Y225D01*
X6420Y201D01*
X6435Y181D01*
X6432Y168D01*
X6354D01*
X6347Y181D01*
X6357Y193D01*
X6368Y221D01*
X6372Y252D01*
X6368Y282D01*
X6357Y310D01*
X6338Y335D01*
X6314Y353D01*
X6285Y365D01*
X6255Y369D01*
X6225Y365D01*
X6197Y353D01*
X6172Y335D01*
X6154Y310D01*
X6142Y282D01*
X6138Y252D01*
X6142Y221D01*
X6154Y193D01*
X6163Y181D01*
X6157Y168D01*
X6100D01*
X6093Y181D01*
X6103Y193D01*
X6114Y221D01*
X6118Y252D01*
X6114Y282D01*
X6103Y310D01*
X6084Y335D01*
X6060Y353D01*
X6031Y365D01*
X6001Y369D01*
X5971Y365D01*
X5943Y353D01*
X5918Y335D01*
X5900Y310D01*
X5888Y282D01*
X5884Y252D01*
X5888Y221D01*
X5900Y193D01*
X5918Y169D01*
X5943Y150D01*
X5943Y150D01*
X5945Y140D01*
X5958Y121D01*
X5986Y92D01*
X5981Y81D01*
X1398D01*
X1395Y93D01*
X1414Y106D01*
X1447Y133D01*
X1474Y166D01*
X1497Y202D01*
X1513Y241D01*
X1523Y283D01*
X1525Y312D01*
X985D01*
X987Y283D01*
X997Y241D01*
X1013Y202D01*
X1036Y166D01*
X1063Y133D01*
X1096Y106D01*
X1115Y93D01*
X1112Y81D01*
X81D01*
Y3219D01*
X713D01*
X717Y3207D01*
X708Y3200D01*
X692Y3179D01*
X682Y3154D01*
X679Y3128D01*
Y3006D01*
X682Y2980D01*
X692Y2955D01*
X708Y2934D01*
X730Y2918D01*
X738Y2914D01*
X739Y2906D01*
X738Y2901D01*
X720Y2893D01*
X703Y2880D01*
X563Y2740D01*
X550Y2723D01*
X542Y2704D01*
X539Y2683D01*
Y1216D01*
X542Y1195D01*
X550Y1176D01*
X563Y1159D01*
X688Y1034D01*
X705Y1021D01*
X724Y1013D01*
X727Y1013D01*
X731Y999D01*
X714Y986D01*
X698Y965D01*
X687Y941D01*
X684Y914D01*
Y793D01*
X687Y766D01*
X698Y742D01*
X714Y721D01*
X735Y704D01*
X759Y694D01*
X786Y691D01*
X812Y694D01*
X837Y704D01*
X858Y721D01*
X874Y742D01*
X884Y766D01*
X888Y793D01*
Y914D01*
X884Y941D01*
X874Y965D01*
X858Y986D01*
X843Y998D01*
X847Y1010D01*
X978D01*
X982Y998D01*
X968Y986D01*
X952Y965D01*
X941Y941D01*
X938Y914D01*
Y793D01*
X941Y766D01*
X952Y742D01*
X968Y721D01*
X989Y704D01*
X1013Y694D01*
X1040Y691D01*
X1066Y694D01*
X1091Y704D01*
X1112Y721D01*
X1128Y742D01*
X1138Y766D01*
X1142Y793D01*
Y914D01*
X1138Y941D01*
X1128Y965D01*
X1112Y986D01*
X1096Y999D01*
X1100Y1012D01*
X1269D01*
X1686Y595D01*
X1703Y582D01*
X1722Y574D01*
X1743Y571D01*
X2354D01*
X2364Y572D01*
X2374Y573D01*
X2374Y574D01*
X2375Y574D01*
X2384Y578D01*
X2393Y581D01*
X2394Y582D01*
X2394Y582D01*
X2402Y588D01*
X2410Y594D01*
X2938Y1113D01*
X2938Y1113D01*
X2938Y1113D01*
X2945Y1121D01*
X2951Y1129D01*
X2951Y1130D01*
X2951Y1130D01*
X2955Y1139D01*
X2959Y1149D01*
X2959Y1149D01*
X2959Y1149D01*
X2961Y1160D01*
X2962Y1170D01*
X2962Y1170D01*
X2962Y1170D01*
Y1428D01*
X2964Y1430D01*
X2983Y1454D01*
X2994Y1483D01*
X2998Y1513D01*
Y1665D01*
X2994Y1696D01*
X2983Y1724D01*
X2964Y1748D01*
X2962Y1750D01*
Y1883D01*
X2990Y1910D01*
X3002Y1927D01*
X3010Y1946D01*
X3013Y1967D01*
Y2059D01*
X4628D01*
X4638Y2060D01*
X4648Y2061D01*
X4649Y2061D01*
X4649Y2061D01*
X4658Y2065D01*
X4668Y2069D01*
X4668Y2069D01*
X4668Y2069D01*
X4676Y2076D01*
X4685Y2082D01*
X4772Y2169D01*
X5352D01*
Y2110D01*
X5355Y2090D01*
X5363Y2070D01*
X5375Y2053D01*
X5392Y2041D01*
X5412Y2033D01*
X5432Y2030D01*
X5453Y2033D01*
X5473Y2041D01*
X5490Y2053D01*
X5502Y2070D01*
X5510Y2090D01*
X5513Y2110D01*
Y2169D01*
X5905D01*
Y2135D01*
X5908Y2114D01*
X5916Y2095D01*
X5916Y2094D01*
X5918Y2084D01*
X5925Y2067D01*
X5936Y2053D01*
X5951Y2041D01*
X5968Y2034D01*
X5986Y2032D01*
X6004Y2034D01*
X6021Y2041D01*
X6036Y2053D01*
X6047Y2067D01*
X6054Y2084D01*
X6055Y2094D01*
X6056Y2095D01*
X6064Y2114D01*
X6067Y2135D01*
Y2169D01*
X6455D01*
Y2139D01*
X6458Y2118D01*
X6466Y2099D01*
X6468Y2084D01*
X6475Y2067D01*
X6486Y2053D01*
X6501Y2041D01*
X6518Y2034D01*
X6536Y2032D01*
X6554Y2034D01*
X6571Y2041D01*
X6586Y2053D01*
X6597Y2067D01*
X6604Y2084D01*
X6606Y2099D01*
X6614Y2118D01*
X6617Y2139D01*
Y2169D01*
X6997D01*
X7333Y1833D01*
Y1615D01*
X7308D01*
Y1405D01*
X7518D01*
Y1470D01*
X7531Y1472D01*
X7534Y1464D01*
X7549Y1446D01*
X7568Y1431D01*
X7590Y1422D01*
X7601Y1421D01*
Y1510D01*
Y1600D01*
X7590Y1598D01*
X7568Y1589D01*
X7549Y1574D01*
X7534Y1556D01*
X7531Y1548D01*
X7518Y1550D01*
Y1615D01*
X7494D01*
Y1866D01*
X7491Y1887D01*
X7483Y1907D01*
X7470Y1923D01*
X7087Y2307D01*
X7070Y2320D01*
X7051Y2328D01*
X7030Y2330D01*
X4739D01*
X4729Y2329D01*
X4718Y2328D01*
X4718Y2328D01*
X4718Y2328D01*
X4708Y2324D01*
X4699Y2320D01*
X4699Y2320D01*
X4699Y2320D01*
X4690Y2313D01*
X4682Y2307D01*
X4595Y2220D01*
X3042D01*
X3034Y2229D01*
Y2383D01*
X3046Y2388D01*
X3052Y2381D01*
X3071Y2367D01*
X3093Y2358D01*
X3117Y2355D01*
X3140Y2358D01*
X3162Y2367D01*
X3181Y2381D01*
X3195Y2400D01*
X3204Y2422D01*
X3207Y2446D01*
X3204Y2469D01*
X3195Y2491D01*
X3181Y2510D01*
X3069Y2621D01*
X3050Y2636D01*
X3029Y2645D01*
X3005Y2648D01*
X2743D01*
X2719Y2645D01*
X2698Y2636D01*
X2679Y2621D01*
X2389Y2331D01*
X2374Y2312D01*
X2365Y2290D01*
X2362Y2267D01*
Y1465D01*
X2097Y1200D01*
X1891D01*
Y1253D01*
X1900Y1274D01*
X1904Y1301D01*
Y1422D01*
X1900Y1449D01*
X1890Y1473D01*
X1874Y1494D01*
X1853Y1511D01*
X1828Y1521D01*
X1802Y1524D01*
X1775Y1521D01*
X1751Y1511D01*
X1730Y1494D01*
X1714Y1473D01*
X1703Y1449D01*
X1700Y1422D01*
Y1301D01*
X1703Y1274D01*
X1710Y1258D01*
Y1109D01*
Y957D01*
X1703Y941D01*
X1700Y914D01*
Y826D01*
X1688Y821D01*
X1360Y1149D01*
X1343Y1162D01*
X1324Y1170D01*
X1303Y1173D01*
X1120D01*
Y1240D01*
X1128Y1250D01*
X1138Y1274D01*
X1142Y1301D01*
Y1422D01*
X1138Y1449D01*
X1128Y1473D01*
X1112Y1494D01*
X1091Y1511D01*
X1066Y1521D01*
X1040Y1524D01*
X1013Y1521D01*
X989Y1511D01*
X968Y1494D01*
X952Y1473D01*
X941Y1449D01*
X938Y1422D01*
Y1301D01*
X941Y1274D01*
X952Y1250D01*
X959Y1240D01*
Y1172D01*
X779D01*
X761Y1189D01*
X767Y1201D01*
X786Y1199D01*
X812Y1202D01*
X837Y1212D01*
X858Y1229D01*
X874Y1250D01*
X884Y1274D01*
X888Y1301D01*
Y1422D01*
X884Y1449D01*
X874Y1473D01*
X858Y1494D01*
X837Y1511D01*
X812Y1521D01*
X786Y1524D01*
X759Y1521D01*
X735Y1511D01*
X714Y1494D01*
X713Y1493D01*
X701Y1497D01*
Y1570D01*
X713Y1574D01*
X714Y1572D01*
X735Y1556D01*
X759Y1546D01*
X786Y1543D01*
X812Y1546D01*
X837Y1556D01*
X858Y1572D01*
X874Y1594D01*
X884Y1618D01*
X888Y1644D01*
Y1766D01*
X884Y1793D01*
X874Y1817D01*
X858Y1838D01*
X849Y1845D01*
X854Y1857D01*
X868Y1856D01*
X969D01*
X974Y1843D01*
X968Y1838D01*
X952Y1817D01*
X941Y1793D01*
X938Y1766D01*
Y1644D01*
X941Y1618D01*
X952Y1594D01*
X968Y1572D01*
X989Y1556D01*
X1013Y1546D01*
X1040Y1543D01*
X1066Y1546D01*
X1091Y1556D01*
X1112Y1572D01*
X1128Y1594D01*
X1138Y1618D01*
X1142Y1644D01*
Y1766D01*
X1138Y1793D01*
X1128Y1817D01*
X1112Y1838D01*
X1106Y1843D01*
X1110Y1856D01*
X1191D01*
X1214Y1859D01*
X1236Y1868D01*
X1255Y1882D01*
X1701Y2328D01*
X1712Y2321D01*
X1703Y2301D01*
X1700Y2274D01*
Y2152D01*
X1703Y2126D01*
X1711Y2108D01*
Y1811D01*
X1703Y1793D01*
X1700Y1766D01*
Y1644D01*
X1703Y1618D01*
X1714Y1594D01*
X1730Y1572D01*
X1751Y1556D01*
X1775Y1546D01*
X1802Y1543D01*
X1828Y1546D01*
X1853Y1556D01*
X1874Y1572D01*
X1890Y1594D01*
X1900Y1618D01*
X1904Y1644D01*
Y1766D01*
X1900Y1793D01*
X1893Y1811D01*
Y1901D01*
X2132D01*
X2155Y1904D01*
X2177Y1914D01*
X2196Y1928D01*
X2310Y2042D01*
X2325Y2061D01*
X2334Y2083D01*
X2337Y2106D01*
Y2423D01*
X2734Y2823D01*
X2820D01*
X2901Y2904D01*
Y3067D01*
X2820Y3149D01*
X2657D01*
X2575Y3067D01*
Y2921D01*
X2182Y2525D01*
X2175Y2516D01*
X2168Y2506D01*
X2168Y2506D01*
X2168Y2506D01*
X2163Y2495D01*
X2159Y2484D01*
X2159Y2484D01*
X2159Y2484D01*
X2157Y2473D01*
X2155Y2461D01*
Y2144D01*
X2094Y2083D01*
X1893D01*
Y2108D01*
X1900Y2126D01*
X1904Y2152D01*
Y2274D01*
X1900Y2301D01*
X1890Y2325D01*
X1874Y2346D01*
X1853Y2363D01*
X1828Y2373D01*
X1802Y2376D01*
X1775Y2373D01*
X1755Y2364D01*
X1748Y2375D01*
X1772Y2399D01*
X1796Y2396D01*
X1823Y2400D01*
X1847Y2410D01*
X1868Y2426D01*
X1885Y2447D01*
X1895Y2472D01*
X1898Y2498D01*
Y2620D01*
X1895Y2646D01*
X1893Y2652D01*
Y2974D01*
X1895Y2980D01*
X1898Y3006D01*
Y3128D01*
X1895Y3154D01*
X1885Y3179D01*
X1868Y3200D01*
X1860Y3207D01*
X1864Y3219D01*
X8171D01*
X8171Y83D01*
D02*
G37*
G36*
X1733Y3207D02*
X1724Y3200D01*
X1708Y3179D01*
X1698Y3154D01*
X1695Y3128D01*
Y3006D01*
X1698Y2980D01*
X1708Y2955D01*
X1711Y2951D01*
Y2674D01*
X1708Y2671D01*
X1698Y2646D01*
X1695Y2620D01*
Y2579D01*
X1153Y2037D01*
X906D01*
X877Y2066D01*
Y2108D01*
X884Y2126D01*
X888Y2152D01*
Y2274D01*
X884Y2301D01*
X874Y2325D01*
X858Y2346D01*
X837Y2363D01*
X812Y2373D01*
X786Y2376D01*
X759Y2373D01*
X735Y2363D01*
X714Y2346D01*
X713Y2345D01*
X701Y2349D01*
Y2416D01*
X713Y2422D01*
X730Y2410D01*
X754Y2400D01*
X780Y2396D01*
X807Y2400D01*
X831Y2410D01*
X852Y2426D01*
X869Y2447D01*
X879Y2472D01*
X882Y2498D01*
Y2620D01*
X879Y2646D01*
X869Y2671D01*
X852Y2692D01*
X831Y2708D01*
X807Y2718D01*
X789Y2720D01*
X785Y2734D01*
X794Y2743D01*
X932D01*
X941Y2744D01*
X950Y2745D01*
X951Y2745D01*
X953Y2745D01*
X961Y2749D01*
X970Y2752D01*
X971Y2753D01*
X972Y2754D01*
X980Y2759D01*
X987Y2765D01*
X1095Y2866D01*
X1096Y2867D01*
X1097Y2868D01*
X1102Y2875D01*
X1108Y2883D01*
X1109Y2884D01*
X1110Y2885D01*
X1113Y2893D01*
X1117Y2902D01*
X1117Y2903D01*
X1118Y2904D01*
X1119Y2913D01*
X1120Y2923D01*
X1120Y2924D01*
X1120Y2925D01*
Y2952D01*
X1123Y2955D01*
X1133Y2980D01*
X1133Y2985D01*
X1192D01*
X1388Y2795D01*
Y2539D01*
X1151Y2302D01*
X1148Y2302D01*
X1136Y2305D01*
X1128Y2325D01*
X1112Y2346D01*
X1091Y2363D01*
X1066Y2373D01*
X1040Y2376D01*
X1013Y2373D01*
X989Y2363D01*
X968Y2346D01*
X952Y2325D01*
X941Y2301D01*
X938Y2274D01*
Y2152D01*
X941Y2126D01*
X952Y2102D01*
X968Y2080D01*
X989Y2064D01*
X1013Y2054D01*
X1040Y2051D01*
X1066Y2054D01*
X1091Y2064D01*
X1112Y2080D01*
X1128Y2102D01*
X1138Y2126D01*
X1139Y2133D01*
X1176D01*
X1197Y2135D01*
X1217Y2144D01*
X1233Y2156D01*
X1526Y2449D01*
X1539Y2466D01*
X1547Y2485D01*
X1549Y2506D01*
Y2829D01*
X1549Y2830D01*
X1549Y2831D01*
X1548Y2841D01*
X1547Y2850D01*
X1546Y2851D01*
X1546Y2852D01*
X1542Y2861D01*
X1539Y2870D01*
X1538Y2870D01*
X1538Y2871D01*
X1532Y2879D01*
X1526Y2887D01*
X1525Y2887D01*
X1525Y2888D01*
X1294Y3110D01*
X1282Y3122D01*
X1265Y3135D01*
X1246Y3143D01*
X1225Y3146D01*
X1134D01*
X1133Y3154D01*
X1123Y3179D01*
X1106Y3200D01*
X1098Y3207D01*
X1102Y3219D01*
X1729D01*
X1733Y3207D01*
D02*
G37*
G36*
X2983Y2451D02*
X2978Y2439D01*
X2824D01*
Y2229D01*
X2852D01*
Y2139D01*
Y2001D01*
X2824Y1973D01*
X2811Y1956D01*
X2803Y1937D01*
X2801Y1916D01*
Y1750D01*
X2798Y1748D01*
X2780Y1724D01*
X2768Y1696D01*
X2764Y1665D01*
Y1513D01*
X2768Y1483D01*
X2780Y1454D01*
X2798Y1430D01*
X2801Y1428D01*
Y1204D01*
X2321Y732D01*
X1897D01*
X1891Y745D01*
X1900Y766D01*
X1904Y793D01*
Y914D01*
X1900Y941D01*
X1891Y962D01*
Y1018D01*
X2134D01*
X2158Y1021D01*
X2180Y1030D01*
X2199Y1045D01*
X2517Y1363D01*
X2531Y1382D01*
X2540Y1404D01*
X2544Y1427D01*
Y2229D01*
X2780Y2466D01*
X2967D01*
X2983Y2451D01*
D02*
G37*
G36*
X9919Y101D02*
X8455D01*
Y375D01*
X8455Y376D01*
X8455Y377D01*
Y625D01*
X8455Y626D01*
X8455Y627D01*
Y875D01*
X8455Y876D01*
X8455Y877D01*
Y1125D01*
X8455Y1126D01*
X8455Y1127D01*
Y1375D01*
X8455Y1376D01*
X8455Y1377D01*
Y1625D01*
X8455Y1626D01*
X8455Y1627D01*
Y1875D01*
X8455Y1876D01*
X8455Y1877D01*
Y2125D01*
X8455Y2126D01*
X8455Y2127D01*
Y2375D01*
X8455Y2376D01*
X8455Y2377D01*
Y2625D01*
X8455Y2626D01*
X8455Y2627D01*
Y2875D01*
X8455Y2876D01*
X8455Y2877D01*
Y3219D01*
X9919D01*
Y101D01*
D02*
G37*
%LPC*%
G36*
X6147Y3193D02*
X6147Y3193D01*
X6147Y3193D01*
X5641Y3191D01*
X5638Y3191D01*
X5635Y3191D01*
X5478Y3190D01*
X5276D01*
X5253Y3186D01*
X5233Y3173D01*
X4876Y2815D01*
X4800D01*
X4795Y2828D01*
X4864Y2898D01*
Y3061D01*
X4783Y3142D01*
X4620D01*
X4539Y3061D01*
Y2898D01*
X4608Y2828D01*
X4603Y2815D01*
X4371D01*
X4365Y2828D01*
X4435Y2898D01*
Y3061D01*
X4354Y3142D01*
X4191D01*
X4109Y3061D01*
Y2920D01*
X4098Y2915D01*
X3971Y3042D01*
X3951Y3056D01*
X3927Y3060D01*
X3671D01*
Y3067D01*
X3589Y3149D01*
X3426D01*
X3345Y3067D01*
Y2904D01*
X3426Y2823D01*
X3589D01*
X3671Y2904D01*
Y2938D01*
X3902D01*
X4129Y2711D01*
X4149Y2698D01*
X4172Y2693D01*
X4901D01*
X4924Y2698D01*
X4944Y2711D01*
X5302Y3068D01*
X5478D01*
X5479Y3068D01*
X5479Y3068D01*
X5566Y3068D01*
X5575Y3060D01*
Y2885D01*
X5553Y2868D01*
X5542Y2854D01*
X5529D01*
X5519Y2868D01*
X5494Y2887D01*
X5466Y2899D01*
X5436Y2903D01*
X5405Y2899D01*
X5377Y2887D01*
X5353Y2868D01*
X5334Y2844D01*
X5323Y2816D01*
X5319Y2786D01*
X5323Y2755D01*
X5334Y2727D01*
X5353Y2703D01*
X5377Y2684D01*
X5405Y2672D01*
X5436Y2668D01*
X5466Y2672D01*
X5494Y2684D01*
X5519Y2703D01*
X5529Y2717D01*
X5542D01*
X5553Y2703D01*
X5577Y2684D01*
X5605Y2672D01*
X5636Y2668D01*
X5666Y2672D01*
X5694Y2684D01*
X5719Y2703D01*
X5729Y2717D01*
X5742D01*
X5753Y2703D01*
X5777Y2684D01*
X5805Y2672D01*
X5836Y2668D01*
X5866Y2672D01*
X5894Y2684D01*
X5919Y2703D01*
X5929Y2717D01*
X5942D01*
X5953Y2703D01*
X5977Y2684D01*
X6005Y2672D01*
X6036Y2668D01*
X6066Y2672D01*
X6094Y2684D01*
X6119Y2703D01*
X6129Y2717D01*
X6142D01*
X6153Y2703D01*
X6177Y2684D01*
X6205Y2672D01*
X6236Y2668D01*
X6266Y2672D01*
X6294Y2684D01*
X6319Y2703D01*
X6329Y2717D01*
X6342D01*
X6353Y2703D01*
X6377Y2684D01*
X6405Y2672D01*
X6436Y2668D01*
X6466Y2672D01*
X6494Y2684D01*
X6519Y2703D01*
X6537Y2727D01*
X6549Y2755D01*
X6553Y2786D01*
X6549Y2816D01*
X6537Y2844D01*
X6519Y2868D01*
X6494Y2887D01*
X6466Y2899D01*
X6436Y2903D01*
X6405Y2899D01*
X6377Y2887D01*
X6353Y2868D01*
X6342Y2854D01*
X6329D01*
X6319Y2868D01*
X6297Y2885D01*
Y3044D01*
X6292Y3067D01*
X6279Y3087D01*
X6191Y3175D01*
X6190Y3175D01*
X6190Y3176D01*
X6181Y3182D01*
X6171Y3189D01*
X6171Y3189D01*
X6170Y3189D01*
X6159Y3191D01*
X6147Y3193D01*
D02*
G37*
G36*
X2437Y3134D02*
X2376D01*
Y2999D01*
X2511D01*
Y3060D01*
X2437Y3134D01*
D02*
G37*
G36*
X2350D02*
X2289D01*
X2215Y3060D01*
Y2999D01*
X2350D01*
Y3134D01*
D02*
G37*
G36*
X2511Y2973D02*
X2376D01*
Y2838D01*
X2437D01*
X2511Y2912D01*
Y2973D01*
D02*
G37*
G36*
X2350D02*
X2215D01*
Y2912D01*
X2289Y2838D01*
X2350D01*
Y2973D01*
D02*
G37*
G36*
X3189Y3149D02*
X3026D01*
X2945Y3067D01*
Y2904D01*
X3026Y2823D01*
X3189D01*
X3271Y2904D01*
Y3067D01*
X3189Y3149D01*
D02*
G37*
G36*
X441Y3142D02*
X279D01*
X197Y3061D01*
Y2898D01*
X279Y2816D01*
X441D01*
X523Y2898D01*
Y3061D01*
X441Y3142D01*
D02*
G37*
G36*
X7751Y2762D02*
Y2678D01*
X7835D01*
X7833Y2691D01*
X7823Y2715D01*
X7808Y2735D01*
X7787Y2751D01*
X7763Y2761D01*
X7751Y2762D01*
D02*
G37*
G36*
X7725D02*
X7712Y2761D01*
X7689Y2751D01*
X7668Y2735D01*
X7652Y2715D01*
X7643Y2691D01*
X7641Y2678D01*
X7725D01*
Y2762D01*
D02*
G37*
G36*
X7497D02*
Y2678D01*
X7581D01*
X7579Y2691D01*
X7569Y2715D01*
X7554Y2735D01*
X7533Y2751D01*
X7509Y2761D01*
X7497Y2762D01*
D02*
G37*
G36*
X7471D02*
X7458Y2761D01*
X7435Y2751D01*
X7414Y2735D01*
X7398Y2715D01*
X7389Y2691D01*
X7387Y2678D01*
X7471D01*
Y2762D01*
D02*
G37*
G36*
X434Y2728D02*
X373D01*
Y2592D01*
X508D01*
Y2654D01*
X434Y2728D01*
D02*
G37*
G36*
X347D02*
X286D01*
X212Y2654D01*
Y2592D01*
X347D01*
Y2728D01*
D02*
G37*
G36*
X7835Y2653D02*
X7751D01*
Y2568D01*
X7763Y2570D01*
X7787Y2580D01*
X7808Y2595D01*
X7823Y2616D01*
X7833Y2640D01*
X7835Y2653D01*
D02*
G37*
G36*
X7725D02*
X7641D01*
X7643Y2640D01*
X7652Y2616D01*
X7668Y2595D01*
X7689Y2580D01*
X7712Y2570D01*
X7725Y2568D01*
Y2653D01*
D02*
G37*
G36*
X7581D02*
X7497D01*
Y2568D01*
X7509Y2570D01*
X7533Y2580D01*
X7554Y2595D01*
X7569Y2616D01*
X7579Y2640D01*
X7581Y2653D01*
D02*
G37*
G36*
X7471D02*
X7387D01*
X7389Y2640D01*
X7398Y2616D01*
X7414Y2595D01*
X7435Y2580D01*
X7458Y2570D01*
X7471Y2568D01*
Y2653D01*
D02*
G37*
G36*
X508Y2567D02*
X373D01*
Y2431D01*
X434D01*
X508Y2505D01*
Y2567D01*
D02*
G37*
G36*
X347D02*
X212D01*
Y2505D01*
X286Y2431D01*
X347D01*
Y2567D01*
D02*
G37*
G36*
X3292Y2424D02*
Y2347D01*
X3368D01*
X3367Y2358D01*
X3358Y2380D01*
X3343Y2399D01*
X3324Y2413D01*
X3302Y2422D01*
X3292Y2424D01*
D02*
G37*
G36*
X3266D02*
X3255Y2422D01*
X3233Y2413D01*
X3214Y2399D01*
X3200Y2380D01*
X3191Y2358D01*
X3189Y2347D01*
X3266D01*
Y2424D01*
D02*
G37*
G36*
X3368Y2322D02*
X3292D01*
Y2245D01*
X3302Y2246D01*
X3324Y2255D01*
X3343Y2270D01*
X3358Y2289D01*
X3367Y2311D01*
X3368Y2322D01*
D02*
G37*
G36*
X3266D02*
X3189D01*
X3191Y2311D01*
X3200Y2289D01*
X3214Y2270D01*
X3233Y2255D01*
X3255Y2246D01*
X3266Y2245D01*
Y2322D01*
D02*
G37*
G36*
X441Y2292D02*
X279D01*
X197Y2210D01*
Y2047D01*
X279Y1966D01*
X441D01*
X523Y2047D01*
Y2210D01*
X441Y2292D01*
D02*
G37*
G36*
X6014Y1877D02*
Y1789D01*
X6102D01*
X6100Y1802D01*
X6090Y1827D01*
X6074Y1848D01*
X6052Y1865D01*
X6028Y1875D01*
X6014Y1877D01*
D02*
G37*
G36*
X5988D02*
X5975Y1875D01*
X5950Y1865D01*
X5929Y1848D01*
X5912Y1827D01*
X5902Y1802D01*
X5900Y1789D01*
X5988D01*
Y1877D01*
D02*
G37*
G36*
X434Y1908D02*
X373D01*
Y1772D01*
X508D01*
Y1834D01*
X434Y1908D01*
D02*
G37*
G36*
X347D02*
X286D01*
X212Y1834D01*
Y1772D01*
X347D01*
Y1908D01*
D02*
G37*
G36*
X6102Y1763D02*
X6014D01*
Y1675D01*
X6028Y1677D01*
X6052Y1687D01*
X6074Y1703D01*
X6090Y1725D01*
X6100Y1749D01*
X6102Y1763D01*
D02*
G37*
G36*
X5988D02*
X5900D01*
X5902Y1749D01*
X5912Y1725D01*
X5929Y1703D01*
X5950Y1687D01*
X5975Y1677D01*
X5988Y1675D01*
Y1763D01*
D02*
G37*
G36*
X6763Y1893D02*
X6733Y1889D01*
X6705Y1877D01*
X6680Y1859D01*
X6662Y1834D01*
X6650Y1806D01*
X6646Y1776D01*
X6650Y1745D01*
X6662Y1717D01*
X6680Y1693D01*
X6705Y1674D01*
X6733Y1663D01*
X6763Y1659D01*
X6793Y1663D01*
X6822Y1674D01*
X6846Y1693D01*
X6865Y1717D01*
X6876Y1745D01*
X6880Y1776D01*
X6876Y1806D01*
X6865Y1834D01*
X6846Y1859D01*
X6822Y1877D01*
X6793Y1889D01*
X6763Y1893D01*
D02*
G37*
G36*
X6509D02*
X6479Y1889D01*
X6451Y1877D01*
X6426Y1859D01*
X6408Y1834D01*
X6396Y1806D01*
X6392Y1776D01*
X6396Y1745D01*
X6408Y1717D01*
X6426Y1693D01*
X6451Y1674D01*
X6479Y1663D01*
X6509Y1659D01*
X6539Y1663D01*
X6568Y1674D01*
X6592Y1693D01*
X6611Y1717D01*
X6622Y1745D01*
X6626Y1776D01*
X6622Y1806D01*
X6611Y1834D01*
X6592Y1859D01*
X6568Y1877D01*
X6539Y1889D01*
X6509Y1893D01*
D02*
G37*
G36*
X6255D02*
X6225Y1889D01*
X6197Y1877D01*
X6172Y1859D01*
X6154Y1834D01*
X6142Y1806D01*
X6138Y1776D01*
X6142Y1745D01*
X6154Y1717D01*
X6172Y1693D01*
X6197Y1674D01*
X6225Y1663D01*
X6255Y1659D01*
X6285Y1663D01*
X6314Y1674D01*
X6338Y1693D01*
X6357Y1717D01*
X6368Y1745D01*
X6372Y1776D01*
X6368Y1806D01*
X6357Y1834D01*
X6338Y1859D01*
X6314Y1877D01*
X6285Y1889D01*
X6255Y1893D01*
D02*
G37*
G36*
X5747D02*
X5717Y1889D01*
X5689Y1877D01*
X5664Y1859D01*
X5646Y1834D01*
X5634Y1806D01*
X5630Y1776D01*
X5634Y1745D01*
X5646Y1717D01*
X5664Y1693D01*
X5689Y1674D01*
X5717Y1663D01*
X5747Y1659D01*
X5777Y1663D01*
X5806Y1674D01*
X5830Y1693D01*
X5849Y1717D01*
X5860Y1745D01*
X5864Y1776D01*
X5860Y1806D01*
X5849Y1834D01*
X5830Y1859D01*
X5806Y1877D01*
X5777Y1889D01*
X5747Y1893D01*
D02*
G37*
G36*
X5239D02*
X5209Y1889D01*
X5181Y1877D01*
X5156Y1859D01*
X5138Y1834D01*
X5126Y1806D01*
X5122Y1776D01*
X5126Y1745D01*
X5138Y1717D01*
X5156Y1693D01*
X5181Y1674D01*
X5209Y1663D01*
X5239Y1659D01*
X5269Y1663D01*
X5298Y1674D01*
X5322Y1693D01*
X5341Y1717D01*
X5352Y1745D01*
X5356Y1776D01*
X5352Y1806D01*
X5341Y1834D01*
X5322Y1859D01*
X5298Y1877D01*
X5269Y1889D01*
X5239Y1893D01*
D02*
G37*
G36*
X4985D02*
X4955Y1889D01*
X4927Y1877D01*
X4902Y1859D01*
X4884Y1834D01*
X4872Y1806D01*
X4868Y1776D01*
X4872Y1745D01*
X4884Y1717D01*
X4902Y1693D01*
X4927Y1674D01*
X4955Y1663D01*
X4985Y1659D01*
X5015Y1663D01*
X5044Y1674D01*
X5068Y1693D01*
X5087Y1717D01*
X5098Y1745D01*
X5102Y1776D01*
X5098Y1806D01*
X5087Y1834D01*
X5068Y1859D01*
X5044Y1877D01*
X5015Y1889D01*
X4985Y1893D01*
D02*
G37*
G36*
X4731D02*
X4701Y1889D01*
X4673Y1877D01*
X4648Y1859D01*
X4630Y1834D01*
X4618Y1806D01*
X4614Y1776D01*
X4618Y1745D01*
X4630Y1717D01*
X4648Y1693D01*
X4673Y1674D01*
X4701Y1663D01*
X4731Y1659D01*
X4761Y1663D01*
X4790Y1674D01*
X4814Y1693D01*
X4833Y1717D01*
X4844Y1745D01*
X4848Y1776D01*
X4844Y1806D01*
X4833Y1834D01*
X4814Y1859D01*
X4790Y1877D01*
X4761Y1889D01*
X4731Y1893D01*
D02*
G37*
G36*
X4477D02*
X4447Y1889D01*
X4419Y1877D01*
X4394Y1859D01*
X4376Y1834D01*
X4364Y1806D01*
X4360Y1776D01*
X4364Y1745D01*
X4376Y1717D01*
X4394Y1693D01*
X4419Y1674D01*
X4447Y1663D01*
X4477Y1659D01*
X4507Y1663D01*
X4536Y1674D01*
X4560Y1693D01*
X4579Y1717D01*
X4590Y1745D01*
X4594Y1776D01*
X4590Y1806D01*
X4579Y1834D01*
X4560Y1859D01*
X4536Y1877D01*
X4507Y1889D01*
X4477Y1893D01*
D02*
G37*
G36*
X4223D02*
X4193Y1889D01*
X4165Y1877D01*
X4140Y1859D01*
X4122Y1834D01*
X4110Y1806D01*
X4106Y1776D01*
X4110Y1745D01*
X4122Y1717D01*
X4140Y1693D01*
X4165Y1674D01*
X4193Y1663D01*
X4223Y1659D01*
X4253Y1663D01*
X4282Y1674D01*
X4306Y1693D01*
X4325Y1717D01*
X4336Y1745D01*
X4340Y1776D01*
X4336Y1806D01*
X4325Y1834D01*
X4306Y1859D01*
X4282Y1877D01*
X4253Y1889D01*
X4223Y1893D01*
D02*
G37*
G36*
X3969D02*
X3939Y1889D01*
X3911Y1877D01*
X3886Y1859D01*
X3868Y1834D01*
X3856Y1806D01*
X3852Y1776D01*
X3856Y1745D01*
X3868Y1717D01*
X3886Y1693D01*
X3911Y1674D01*
X3939Y1663D01*
X3969Y1659D01*
X3999Y1663D01*
X4028Y1674D01*
X4052Y1693D01*
X4071Y1717D01*
X4082Y1745D01*
X4086Y1776D01*
X4082Y1806D01*
X4071Y1834D01*
X4052Y1859D01*
X4028Y1877D01*
X3999Y1889D01*
X3969Y1893D01*
D02*
G37*
G36*
X508Y1747D02*
X373D01*
Y1611D01*
X434D01*
X508Y1685D01*
Y1747D01*
D02*
G37*
G36*
X347D02*
X212D01*
Y1685D01*
X286Y1611D01*
X347D01*
Y1747D01*
D02*
G37*
G36*
X3148Y1766D02*
Y1602D01*
X3238D01*
Y1665D01*
X3234Y1692D01*
X3224Y1717D01*
X3208Y1738D01*
X3186Y1754D01*
X3162Y1764D01*
X3148Y1766D01*
D02*
G37*
G36*
X3123D02*
X3109Y1764D01*
X3084Y1754D01*
X3063Y1738D01*
X3047Y1717D01*
X3036Y1692D01*
X3033Y1665D01*
Y1602D01*
X3123D01*
Y1766D01*
D02*
G37*
G36*
X7626Y1600D02*
Y1523D01*
X7703D01*
X7701Y1534D01*
X7692Y1556D01*
X7678Y1574D01*
X7659Y1589D01*
X7637Y1598D01*
X7626Y1600D01*
D02*
G37*
G36*
X7703Y1497D02*
X7626D01*
Y1421D01*
X7637Y1422D01*
X7659Y1431D01*
X7678Y1446D01*
X7692Y1464D01*
X7701Y1486D01*
X7703Y1497D01*
D02*
G37*
G36*
X3238Y1576D02*
X3148D01*
Y1412D01*
X3162Y1414D01*
X3186Y1424D01*
X3208Y1440D01*
X3224Y1462D01*
X3234Y1486D01*
X3238Y1513D01*
Y1576D01*
D02*
G37*
G36*
X3123D02*
X3033D01*
Y1513D01*
X3036Y1486D01*
X3047Y1462D01*
X3063Y1440D01*
X3084Y1424D01*
X3109Y1414D01*
X3123Y1412D01*
Y1576D01*
D02*
G37*
G36*
X3389Y1783D02*
X3359Y1779D01*
X3331Y1767D01*
X3306Y1748D01*
X3288Y1724D01*
X3276Y1696D01*
X3272Y1665D01*
Y1513D01*
X3276Y1483D01*
X3288Y1454D01*
X3306Y1430D01*
X3331Y1411D01*
X3359Y1400D01*
X3389Y1396D01*
X3420Y1400D01*
X3448Y1411D01*
X3472Y1430D01*
X3491Y1454D01*
X3502Y1483D01*
X3506Y1513D01*
Y1665D01*
X3502Y1696D01*
X3491Y1724D01*
X3472Y1748D01*
X3448Y1767D01*
X3420Y1779D01*
X3389Y1783D01*
D02*
G37*
G36*
X441Y1459D02*
X279D01*
X197Y1377D01*
Y1214D01*
X279Y1133D01*
X441D01*
X523Y1214D01*
Y1377D01*
X441Y1459D01*
D02*
G37*
G36*
X5127Y1054D02*
X5047D01*
Y974D01*
X5127D01*
Y1054D01*
D02*
G37*
G36*
X434Y1075D02*
X373D01*
Y939D01*
X508D01*
Y1001D01*
X434Y1075D01*
D02*
G37*
G36*
X347D02*
X286D01*
X212Y1001D01*
Y939D01*
X347D01*
Y1075D01*
D02*
G37*
G36*
X5493Y1893D02*
X5463Y1889D01*
X5435Y1877D01*
X5410Y1859D01*
X5392Y1834D01*
X5380Y1806D01*
X5376Y1776D01*
X5380Y1745D01*
X5392Y1717D01*
X5410Y1693D01*
X5432Y1676D01*
Y1437D01*
X5437Y1413D01*
X5450Y1393D01*
X5748Y1095D01*
X5768Y1082D01*
X5791Y1077D01*
X6541D01*
X6711Y907D01*
X6718Y890D01*
X6730Y875D01*
X6744Y864D01*
X6761Y857D01*
X6779Y855D01*
X6798Y857D01*
X6815Y864D01*
X6829Y875D01*
X6841Y890D01*
X6848Y907D01*
X6850Y925D01*
X6848Y944D01*
X6841Y961D01*
X6829Y975D01*
X6815Y986D01*
X6798Y994D01*
X6610Y1182D01*
X6590Y1195D01*
X6566Y1200D01*
X5817D01*
X5554Y1462D01*
Y1676D01*
X5576Y1693D01*
X5595Y1717D01*
X5606Y1745D01*
X5610Y1776D01*
X5606Y1806D01*
X5595Y1834D01*
X5576Y1859D01*
X5552Y1877D01*
X5523Y1889D01*
X5493Y1893D01*
D02*
G37*
G36*
X508Y914D02*
X373D01*
Y778D01*
X434D01*
X508Y852D01*
Y914D01*
D02*
G37*
G36*
X347D02*
X212D01*
Y852D01*
X286Y778D01*
X347D01*
Y914D01*
D02*
G37*
G36*
X2967Y600D02*
Y523D01*
X3044D01*
X3043Y534D01*
X3034Y556D01*
X3019Y575D01*
X3000Y589D01*
X2978Y599D01*
X2967Y600D01*
D02*
G37*
G36*
X2942D02*
X2931Y599D01*
X2909Y589D01*
X2890Y575D01*
X2876Y556D01*
X2867Y534D01*
X2865Y523D01*
X2942D01*
Y600D01*
D02*
G37*
G36*
X3044Y498D02*
X2967D01*
Y421D01*
X2978Y422D01*
X3000Y431D01*
X3019Y446D01*
X3034Y465D01*
X3043Y487D01*
X3044Y498D01*
D02*
G37*
G36*
X2942D02*
X2865D01*
X2867Y487D01*
X2876Y465D01*
X2890Y446D01*
X2909Y431D01*
X2931Y422D01*
X2942Y421D01*
Y498D01*
D02*
G37*
G36*
X1268Y595D02*
Y338D01*
X1525D01*
X1523Y367D01*
X1513Y409D01*
X1497Y448D01*
X1474Y484D01*
X1447Y517D01*
X1414Y544D01*
X1378Y567D01*
X1339Y583D01*
X1297Y593D01*
X1268Y595D01*
D02*
G37*
G36*
X1242D02*
X1213Y593D01*
X1171Y583D01*
X1132Y567D01*
X1096Y544D01*
X1063Y517D01*
X1036Y484D01*
X1013Y448D01*
X997Y409D01*
X987Y367D01*
X985Y338D01*
X1242D01*
Y595D01*
D02*
G37*
G36*
X6522Y353D02*
Y265D01*
X6610D01*
X6608Y278D01*
X6598Y303D01*
X6582Y324D01*
X6560Y341D01*
X6536Y351D01*
X6522Y353D01*
D02*
G37*
G36*
X6496D02*
X6483Y351D01*
X6458Y341D01*
X6437Y324D01*
X6420Y303D01*
X6410Y278D01*
X6408Y265D01*
X6496D01*
Y353D01*
D02*
G37*
G36*
X5747Y369D02*
X5717Y365D01*
X5689Y353D01*
X5664Y335D01*
X5646Y310D01*
X5634Y282D01*
X5630Y252D01*
X5634Y221D01*
X5646Y193D01*
X5664Y169D01*
X5689Y150D01*
X5717Y139D01*
X5747Y135D01*
X5777Y139D01*
X5806Y150D01*
X5830Y169D01*
X5849Y193D01*
X5860Y221D01*
X5864Y252D01*
X5860Y282D01*
X5849Y310D01*
X5830Y335D01*
X5806Y353D01*
X5777Y365D01*
X5747Y369D01*
D02*
G37*
G36*
X5493D02*
X5463Y365D01*
X5435Y353D01*
X5410Y335D01*
X5392Y310D01*
X5380Y282D01*
X5376Y252D01*
X5380Y221D01*
X5392Y193D01*
X5410Y169D01*
X5435Y150D01*
X5463Y139D01*
X5493Y135D01*
X5523Y139D01*
X5552Y150D01*
X5576Y169D01*
X5595Y193D01*
X5606Y221D01*
X5610Y252D01*
X5606Y282D01*
X5595Y310D01*
X5576Y335D01*
X5552Y353D01*
X5523Y365D01*
X5493Y369D01*
D02*
G37*
G36*
X5239D02*
X5209Y365D01*
X5181Y353D01*
X5156Y335D01*
X5138Y310D01*
X5126Y282D01*
X5122Y252D01*
X5126Y221D01*
X5138Y193D01*
X5156Y169D01*
X5181Y150D01*
X5209Y139D01*
X5239Y135D01*
X5269Y139D01*
X5298Y150D01*
X5322Y169D01*
X5341Y193D01*
X5352Y221D01*
X5356Y252D01*
X5352Y282D01*
X5341Y310D01*
X5322Y335D01*
X5298Y353D01*
X5269Y365D01*
X5239Y369D01*
D02*
G37*
G36*
X4985D02*
X4955Y365D01*
X4927Y353D01*
X4902Y335D01*
X4884Y310D01*
X4872Y282D01*
X4868Y252D01*
X4872Y221D01*
X4884Y193D01*
X4902Y169D01*
X4927Y150D01*
X4955Y139D01*
X4985Y135D01*
X5015Y139D01*
X5044Y150D01*
X5068Y169D01*
X5087Y193D01*
X5098Y221D01*
X5102Y252D01*
X5098Y282D01*
X5087Y310D01*
X5068Y335D01*
X5044Y353D01*
X5015Y365D01*
X4985Y369D01*
D02*
G37*
G36*
X4731D02*
X4701Y365D01*
X4673Y353D01*
X4648Y335D01*
X4630Y310D01*
X4618Y282D01*
X4614Y252D01*
X4618Y221D01*
X4630Y193D01*
X4648Y169D01*
X4673Y150D01*
X4701Y139D01*
X4731Y135D01*
X4761Y139D01*
X4790Y150D01*
X4814Y169D01*
X4833Y193D01*
X4844Y221D01*
X4848Y252D01*
X4844Y282D01*
X4833Y310D01*
X4814Y335D01*
X4790Y353D01*
X4761Y365D01*
X4731Y369D01*
D02*
G37*
G36*
X4477D02*
X4447Y365D01*
X4419Y353D01*
X4394Y335D01*
X4376Y310D01*
X4364Y282D01*
X4360Y252D01*
X4364Y221D01*
X4376Y193D01*
X4394Y169D01*
X4419Y150D01*
X4447Y139D01*
X4477Y135D01*
X4507Y139D01*
X4536Y150D01*
X4560Y169D01*
X4579Y193D01*
X4590Y221D01*
X4594Y252D01*
X4590Y282D01*
X4579Y310D01*
X4560Y335D01*
X4536Y353D01*
X4507Y365D01*
X4477Y369D01*
D02*
G37*
G36*
X4223D02*
X4193Y365D01*
X4165Y353D01*
X4140Y335D01*
X4122Y310D01*
X4110Y282D01*
X4106Y252D01*
X4110Y221D01*
X4122Y193D01*
X4140Y169D01*
X4165Y150D01*
X4193Y139D01*
X4223Y135D01*
X4253Y139D01*
X4282Y150D01*
X4306Y169D01*
X4325Y193D01*
X4336Y221D01*
X4340Y252D01*
X4336Y282D01*
X4325Y310D01*
X4306Y335D01*
X4282Y353D01*
X4253Y365D01*
X4223Y369D01*
D02*
G37*
G36*
X3969D02*
X3939Y365D01*
X3911Y353D01*
X3886Y335D01*
X3868Y310D01*
X3856Y282D01*
X3852Y252D01*
X3856Y221D01*
X3868Y193D01*
X3886Y169D01*
X3911Y150D01*
X3939Y139D01*
X3969Y135D01*
X3999Y139D01*
X4028Y150D01*
X4052Y169D01*
X4071Y193D01*
X4082Y221D01*
X4086Y252D01*
X4082Y282D01*
X4071Y310D01*
X4052Y335D01*
X4028Y353D01*
X3999Y365D01*
X3969Y369D01*
D02*
G37*
G36*
X405Y516D02*
X368Y512D01*
X332Y501D01*
X299Y484D01*
X270Y460D01*
X246Y431D01*
X229Y398D01*
X218Y362D01*
X214Y325D01*
X218Y288D01*
X229Y252D01*
X246Y219D01*
X270Y190D01*
X299Y166D01*
X332Y149D01*
X368Y138D01*
X405Y134D01*
X442Y138D01*
X478Y149D01*
X511Y166D01*
X540Y190D01*
X564Y219D01*
X581Y252D01*
X592Y288D01*
X596Y325D01*
X592Y362D01*
X581Y398D01*
X564Y431D01*
X540Y460D01*
X511Y484D01*
X478Y501D01*
X442Y512D01*
X405Y516D01*
D02*
G37*
%LPD*%
G36*
X6175Y3018D02*
Y2885D01*
X6153Y2868D01*
X6142Y2854D01*
X6129D01*
X6119Y2868D01*
X6094Y2887D01*
X6066Y2899D01*
X6036Y2903D01*
X6005Y2899D01*
X5977Y2887D01*
X5953Y2868D01*
X5942Y2854D01*
X5929D01*
X5919Y2868D01*
X5894Y2887D01*
X5866Y2899D01*
X5836Y2903D01*
X5805Y2899D01*
X5777Y2887D01*
X5753Y2868D01*
X5742Y2854D01*
X5729D01*
X5719Y2868D01*
X5697Y2885D01*
Y3069D01*
X6122Y3071D01*
X6175Y3018D01*
D02*
G37*
%LPC*%
G36*
X1034Y2722D02*
X1008Y2718D01*
X984Y2708D01*
X962Y2692D01*
X946Y2671D01*
X936Y2646D01*
X933Y2620D01*
Y2498D01*
X936Y2472D01*
X946Y2447D01*
X962Y2426D01*
X984Y2410D01*
X1008Y2400D01*
X1034Y2396D01*
X1061Y2400D01*
X1085Y2410D01*
X1106Y2426D01*
X1123Y2447D01*
X1133Y2472D01*
X1136Y2498D01*
Y2620D01*
X1133Y2646D01*
X1123Y2671D01*
X1106Y2692D01*
X1085Y2708D01*
X1061Y2718D01*
X1034Y2722D01*
D02*
G37*
G36*
X9066Y2311D02*
Y2226D01*
X9151D01*
X9149Y2239D01*
X9139Y2263D01*
X9124Y2283D01*
X9103Y2299D01*
X9079Y2309D01*
X9066Y2311D01*
D02*
G37*
G36*
X9041D02*
X9028Y2309D01*
X9004Y2299D01*
X8984Y2283D01*
X8968Y2263D01*
X8958Y2239D01*
X8957Y2226D01*
X9041D01*
Y2311D01*
D02*
G37*
G36*
X9151Y2201D02*
X9066D01*
Y2116D01*
X9079Y2118D01*
X9103Y2128D01*
X9124Y2144D01*
X9139Y2164D01*
X9149Y2188D01*
X9151Y2201D01*
D02*
G37*
G36*
X9041D02*
X8957D01*
X8958Y2188D01*
X8968Y2164D01*
X8984Y2144D01*
X9004Y2128D01*
X9028Y2118D01*
X9041Y2116D01*
Y2201D01*
D02*
G37*
G36*
X8912Y2326D02*
X8687D01*
Y2101D01*
X8912D01*
Y2326D01*
D02*
G37*
G36*
X9308Y2327D02*
X9278Y2323D01*
X9251Y2312D01*
X9228Y2294D01*
X9209Y2270D01*
X9198Y2243D01*
X9194Y2214D01*
X9198Y2184D01*
X9209Y2157D01*
X9228Y2133D01*
X9251Y2115D01*
X9278Y2104D01*
X9308Y2100D01*
X9337Y2104D01*
X9364Y2115D01*
X9388Y2133D01*
X9406Y2157D01*
X9417Y2184D01*
X9421Y2214D01*
X9417Y2243D01*
X9406Y2270D01*
X9388Y2294D01*
X9364Y2312D01*
X9337Y2323D01*
X9308Y2327D01*
D02*
G37*
G36*
X9575Y2256D02*
X9545Y2252D01*
X9517Y2240D01*
X9493Y2222D01*
X9474Y2198D01*
X9463Y2170D01*
X9459Y2140D01*
X9463Y2110D01*
X9474Y2082D01*
X9478Y2077D01*
X9470Y2067D01*
X9464Y2069D01*
X9435Y2073D01*
X9405Y2069D01*
X9378Y2058D01*
X9355Y2040D01*
X9336Y2016D01*
X9325Y1989D01*
X9321Y1960D01*
X9325Y1930D01*
X9336Y1903D01*
X9355Y1879D01*
X9378Y1861D01*
X9405Y1850D01*
X9435Y1846D01*
X9464Y1850D01*
X9491Y1861D01*
X9515Y1879D01*
X9533Y1903D01*
X9544Y1930D01*
X9548Y1960D01*
X9544Y1989D01*
X9533Y2016D01*
X9530Y2020D01*
X9538Y2030D01*
X9545Y2028D01*
X9575Y2024D01*
X9605Y2028D01*
X9633Y2039D01*
X9657Y2058D01*
X9675Y2082D01*
X9687Y2110D01*
X9691Y2140D01*
X9687Y2170D01*
X9675Y2198D01*
X9657Y2222D01*
X9633Y2240D01*
X9605Y2252D01*
X9575Y2256D01*
D02*
G37*
G36*
X9181Y2073D02*
X9151Y2069D01*
X9124Y2058D01*
X9101Y2040D01*
X9082Y2016D01*
X9071Y1989D01*
X9067Y1960D01*
X9071Y1930D01*
X9082Y1903D01*
X9101Y1879D01*
X9124Y1861D01*
X9151Y1850D01*
X9181Y1846D01*
X9210Y1850D01*
X9237Y1861D01*
X9261Y1879D01*
X9279Y1903D01*
X9290Y1930D01*
X9294Y1960D01*
X9290Y1989D01*
X9279Y2016D01*
X9261Y2040D01*
X9237Y2058D01*
X9210Y2069D01*
X9181Y2073D01*
D02*
G37*
G36*
X8927D02*
X8897Y2069D01*
X8870Y2058D01*
X8847Y2040D01*
X8828Y2016D01*
X8817Y1989D01*
X8813Y1960D01*
X8817Y1930D01*
X8828Y1903D01*
X8847Y1879D01*
X8870Y1861D01*
X8897Y1850D01*
X8927Y1846D01*
X8956Y1850D01*
X8983Y1861D01*
X9007Y1879D01*
X9025Y1903D01*
X9036Y1930D01*
X9040Y1960D01*
X9036Y1989D01*
X9025Y2016D01*
X9007Y2040D01*
X8983Y2058D01*
X8956Y2069D01*
X8927Y2073D01*
D02*
G37*
G36*
X9449Y1441D02*
X9429Y1438D01*
X9410Y1430D01*
X9394Y1418D01*
X9393Y1417D01*
X9381D01*
X9380Y1418D01*
X9364Y1430D01*
X9345Y1438D01*
X9324Y1441D01*
X9304Y1438D01*
X9285Y1430D01*
X9269Y1418D01*
X9257Y1402D01*
X9249Y1383D01*
X9246Y1363D01*
X9249Y1342D01*
X9257Y1324D01*
X9269Y1307D01*
X9285Y1295D01*
X9304Y1287D01*
X9324Y1284D01*
X9345Y1287D01*
X9364Y1295D01*
X9380Y1307D01*
X9381Y1309D01*
X9393D01*
X9394Y1307D01*
X9410Y1295D01*
X9429Y1287D01*
X9449Y1284D01*
X9470Y1287D01*
X9484Y1293D01*
X9497Y1287D01*
Y1285D01*
X9652D01*
Y1440D01*
X9497D01*
Y1439D01*
X9484Y1432D01*
X9470Y1438D01*
X9449Y1441D01*
D02*
G37*
G36*
X8837Y1426D02*
X8787D01*
Y1375D01*
X8837D01*
Y1426D01*
D02*
G37*
G36*
Y1350D02*
X8787D01*
Y1300D01*
X8837D01*
Y1350D01*
D02*
G37*
G36*
X8649Y1441D02*
X8629Y1438D01*
X8610Y1430D01*
X8594Y1418D01*
X8582Y1402D01*
X8574Y1383D01*
X8571Y1363D01*
X8574Y1342D01*
X8582Y1324D01*
X8594Y1307D01*
X8610Y1295D01*
X8629Y1287D01*
X8649Y1284D01*
X8670Y1287D01*
X8688Y1295D01*
X8699Y1303D01*
X8711Y1300D01*
Y1300D01*
X8762D01*
Y1363D01*
Y1426D01*
X8711D01*
Y1426D01*
X8699Y1422D01*
X8688Y1430D01*
X8670Y1438D01*
X8649Y1441D01*
D02*
G37*
G36*
X9599Y674D02*
X9562Y671D01*
X9526Y660D01*
X9493Y642D01*
X9464Y618D01*
X9441Y589D01*
X9423Y556D01*
X9412Y521D01*
X9408Y483D01*
X9412Y446D01*
X9423Y410D01*
X9441Y377D01*
X9464Y348D01*
X9493Y325D01*
X9526Y307D01*
X9562Y296D01*
X9599Y292D01*
X9637Y296D01*
X9672Y307D01*
X9705Y325D01*
X9734Y348D01*
X9758Y377D01*
X9776Y410D01*
X9787Y446D01*
X9790Y483D01*
X9787Y521D01*
X9776Y556D01*
X9758Y589D01*
X9734Y618D01*
X9705Y642D01*
X9672Y660D01*
X9637Y671D01*
X9599Y674D01*
D02*
G37*
%LPD*%
D16*
X7413Y1510D02*
D03*
X3305Y510D02*
D03*
X2929Y2334D02*
D03*
D17*
X7613Y1510D02*
D03*
X2955Y510D02*
D03*
X3279Y2334D02*
D03*
D18*
X8649Y1363D02*
D03*
X9324D02*
D03*
X9449D02*
D03*
D19*
X8774D02*
D03*
X9574D02*
D03*
D20*
X9575Y2140D02*
D03*
X7878Y2845D02*
D03*
D21*
X9435Y1960D02*
D03*
X9308Y2214D02*
D03*
X8927Y1960D02*
D03*
X9054Y2214D02*
D03*
X9181Y1960D02*
D03*
X7738Y2665D02*
D03*
X7611Y2919D02*
D03*
X7230Y2665D02*
D03*
X7357Y2919D02*
D03*
X7484Y2665D02*
D03*
D22*
X8800Y2214D02*
D03*
X7103Y2919D02*
D03*
D23*
X3969Y1776D02*
D03*
X4223D02*
D03*
X4477D02*
D03*
X4731D02*
D03*
X4985D02*
D03*
X5239D02*
D03*
X5493D02*
D03*
X5747D02*
D03*
X6001D02*
D03*
X6255D02*
D03*
X6509D02*
D03*
X6763D02*
D03*
Y252D02*
D03*
X6509D02*
D03*
X6255D02*
D03*
X6001D02*
D03*
X5747D02*
D03*
X5493D02*
D03*
X5239D02*
D03*
X4985D02*
D03*
X4731D02*
D03*
X4477D02*
D03*
X4223D02*
D03*
X3969D02*
D03*
X5436Y2786D02*
D03*
X5636D02*
D03*
X5836D02*
D03*
X6036D02*
D03*
X6236D02*
D03*
X6436D02*
D03*
D24*
X3389Y1589D02*
D03*
X3135D02*
D03*
X2881D02*
D03*
D25*
X360Y2129D02*
D03*
X3508Y2986D02*
D03*
X360Y2580D02*
D03*
Y1759D02*
D03*
Y927D02*
D03*
D26*
X2363Y2986D02*
D03*
X2738D02*
D03*
X3108D02*
D03*
X360Y1296D02*
D03*
Y2979D02*
D03*
X4701D02*
D03*
X4272D02*
D03*
D27*
X786Y1705D02*
D03*
X1040D02*
D03*
X1802D02*
D03*
Y2213D02*
D03*
X1040D02*
D03*
X786D02*
D03*
Y854D02*
D03*
X1040D02*
D03*
X1802D02*
D03*
Y1362D02*
D03*
X1040D02*
D03*
X786D02*
D03*
X780Y2559D02*
D03*
X1034D02*
D03*
X1796D02*
D03*
Y3067D02*
D03*
X1034D02*
D03*
X780D02*
D03*
D28*
X1255Y325D02*
D03*
X405D02*
D03*
X9599Y483D02*
D03*
D29*
X8044Y1961D02*
D03*
X7943Y1953D02*
D03*
X7238Y2469D02*
D03*
X6779Y925D02*
D03*
X4571Y2459D02*
D03*
X3117Y2446D02*
D03*
X6536Y2103D02*
D03*
X5161D02*
D03*
X5432D02*
D03*
X5986D02*
D03*
D30*
X1802Y2557D02*
Y3065D01*
X1191Y1946D02*
X1802Y2557D01*
X3121Y2973D02*
X3140Y2993D01*
X1801Y1109D02*
Y1360D01*
Y855D02*
Y1109D01*
X2134D01*
X2453Y1427D01*
Y2267D01*
X2743Y2557D01*
X3005D01*
X3117Y2446D01*
X2769Y3021D02*
X2769Y2986D01*
X2753Y2971D02*
X2768Y2986D01*
X2246Y2461D02*
X2753Y2971D01*
X1802Y1705D02*
Y2213D01*
X2132Y1992D02*
X2246Y2106D01*
X1802Y1992D02*
X2132D01*
X2769Y2986D02*
X2769Y2976D01*
X868Y1946D02*
X1191D01*
X786Y2029D02*
X868Y1946D01*
X2766Y2972D02*
X2769Y2976D01*
X2246Y2106D02*
Y2461D01*
X3138Y2929D02*
X3138Y2972D01*
X786Y2029D02*
Y2213D01*
D31*
X3310Y481D02*
X3340Y510D01*
X3556Y612D02*
X6644D01*
X3340Y510D02*
X3454D01*
X3305D02*
X3340D01*
X3454D02*
X3556Y612D01*
X7030Y2250D02*
X7413Y1866D01*
X6536Y2250D02*
X7030D01*
X2933Y2139D02*
X4628D01*
X7413Y1510D02*
Y1866D01*
X2933Y2139D02*
Y2345D01*
X6763Y323D02*
Y493D01*
X6644Y612D02*
X6763Y493D01*
X1303Y1092D02*
X1743Y652D01*
X1040Y1092D02*
X1303D01*
X1040D02*
Y1362D01*
X745Y1091D02*
X1040D01*
X620Y1216D02*
X745Y1091D01*
X2354Y652D02*
X2881Y1170D01*
X1743Y652D02*
X2354D01*
X5432Y2110D02*
Y2242D01*
X2933Y1967D02*
Y2139D01*
X2881Y1589D02*
Y1916D01*
Y1170D02*
Y1589D01*
X5986Y2135D02*
Y2250D01*
X6536D01*
Y2139D02*
Y2250D01*
X4739D02*
X5441D01*
X5986D01*
X5432Y2242D02*
X5441Y2250D01*
X4628Y2139D02*
X4739Y2250D01*
X620Y2683D02*
X760Y2823D01*
X620Y1216D02*
Y2683D01*
X2881Y1916D02*
X2933Y1967D01*
X1040Y2213D02*
X1176D01*
X1225Y3065D02*
X1237Y3053D01*
X1040Y3065D02*
X1225D01*
X1237Y3053D02*
X1469Y2829D01*
Y2506D02*
Y2829D01*
X1176Y2213D02*
X1469Y2506D01*
X760Y2823D02*
X932D01*
X1040Y2925D01*
X1040Y3065D01*
D32*
X7902Y3069D02*
X8044Y2927D01*
X7507Y3069D02*
X7902D01*
X8044Y1961D02*
Y2927D01*
X7357Y2919D02*
X7507Y3069D01*
X7230Y2665D02*
X7943Y1953D01*
X7803Y1073D02*
Y1905D01*
X7238Y2469D02*
X7803Y1905D01*
X7097Y2610D02*
X7238Y2469D01*
X7097Y2610D02*
Y2919D01*
X6837Y107D02*
X7803Y1073D01*
X6058Y107D02*
X6837D01*
X6001Y164D02*
X6058Y107D01*
X6001Y164D02*
Y252D01*
X6566Y1139D02*
X6779Y925D01*
X5791Y1139D02*
X6566D01*
X5493Y1437D02*
X5791Y1139D01*
X5493Y1437D02*
Y1776D01*
X3536Y2999D02*
X3927D01*
X4172Y2754D01*
X3489Y3030D02*
X3508Y3011D01*
X5478Y3129D02*
X5636Y3130D01*
X5636Y2786D02*
Y3124D01*
X5642Y3130D02*
X6147Y3132D01*
X6236Y2786D02*
Y3044D01*
X6147Y3132D02*
X6236Y3044D01*
X4172Y2754D02*
X4901D01*
X5276Y3129D01*
X5478D01*
X1040Y854D02*
X1070D01*
M02*
